<svg xmlns="http://www.w3.org/2000/svg" viewBox="0 0 144 144" width="144" height="144">
  <defs>
    <linearGradient id="bgGrad-144" x1="0%" y1="0%" x2="100%" y2="100%">
      <stop offset="0%" style="stop-color:#3b82f6;stop-opacity:1" />
      <stop offset="100%" style="stop-color:#1d4ed8;stop-opacity:1" />
    </linearGradient>
    <linearGradient id="mainGrad-144" x1="0%" y1="0%" x2="100%" y2="100%">
      <stop offset="0%" style="stop-color:#3b82f6;stop-opacity:1" />
      <stop offset="100%" style="stop-color:#1d4ed8;stop-opacity:1" />
    </linearGradient>
  </defs>
  
  <!-- Safe zone background -->
  <rect width="144" height="144" fill="url(#bgGrad-144)"/>
  
  <!-- Logo content scaled and centered -->
  <g transform="translate(14.4, 14.4) scale(0.5760000000000001)">
    <!-- Main Circle -->
    <circle cx="100" cy="100" r="75" fill="url(#mainGrad-144)" stroke="#1e40af" stroke-width="2"/>

    <!-- Bar chart bars -->
    <g opacity="0.95">
      <rect x="55" y="110" width="18" height="35" rx="3" fill="#ffffff"/>
      <rect x="80" y="85" width="18" height="60" rx="3" fill="#ffffff"/>
      <rect x="105" y="65" width="18" height="80" rx="3" fill="#ffffff"/>
      <rect x="130" y="75" width="18" height="70" rx="3" fill="#ffffff"/>
    </g>

    <!-- Trend line -->
    <path d="M 60 120 L 89 95 L 114 75 L 139 85"
          stroke="#f59e0b" stroke-width="4" fill="none"
          stroke-linecap="round" stroke-linejoin="round" opacity="0.9"/>

    <!-- Data points -->
    <circle cx="60" cy="120" r="4" fill="#f59e0b"/>
    <circle cx="89" cy="95" r="4" fill="#f59e0b"/>
    <circle cx="114" cy="75" r="4" fill="#f59e0b"/>
    <circle cx="139" cy="85" r="4" fill="#f59e0b"/>

    <!-- Progress arc -->
    <path d="M 100 40 A 55 55 0 0 1 145 60"
          stroke="#ffffff" stroke-width="6" fill="none"
          stroke-linecap="round" opacity="0.4"/>
  </g>
</svg>