<svg xmlns="http://www.w3.org/2000/svg" viewBox="0 0 200 200" width="512" height="512">
  <!-- Background Circle with gradient -->
  <defs>
    <linearGradient id="bgGrad" x1="0%" y1="0%" x2="100%" y2="100%">
      <stop offset="0%" style="stop-color:#3b82f6;stop-opacity:0.15" />
      <stop offset="100%" style="stop-color:#1d4ed8;stop-opacity:0.05" />
    </linearGradient>
    <linearGradient id="mainGrad" x1="0%" y1="0%" x2="100%" y2="100%">
      <stop offset="0%" style="stop-color:#3b82f6;stop-opacity:1" />
      <stop offset="100%" style="stop-color:#1d4ed8;stop-opacity:1" />
    </linearGradient>
  </defs>

  <!-- Background -->
  <circle cx="100" cy="100" r="95" fill="url(#bgGrad)"/>

  <!-- Main Circle -->
  <circle cx="100" cy="100" r="75" fill="url(#mainGrad)" stroke="#1e40af" stroke-width="2"/>

  <!-- Chart/Graph Icon - representing tracking -->
  <!-- Bar chart bars -->
  <g opacity="0.95">
    <!-- Bar 1 (shortest) -->
    <rect x="55" y="110" width="18" height="35" rx="3" fill="#ffffff"/>
    <!-- Bar 2 (medium) -->
    <rect x="80" y="85" width="18" height="60" rx="3" fill="#ffffff"/>
    <!-- Bar 3 (tallest) -->
    <rect x="105" y="65" width="18" height="80" rx="3" fill="#ffffff"/>
    <!-- Bar 4 (medium-tall) -->
    <rect x="130" y="75" width="18" height="70" rx="3" fill="#ffffff"/>
  </g>

  <!-- Trend line overlay showing growth -->
  <path d="M 60 120 L 89 95 L 114 75 L 139 85"
        stroke="#f59e0b" stroke-width="4" fill="none"
        stroke-linecap="round" stroke-linejoin="round" opacity="0.9"/>

  <!-- Data points on trend line -->
  <circle cx="60" cy="120" r="4" fill="#f59e0b"/>
  <circle cx="89" cy="95" r="4" fill="#f59e0b"/>
  <circle cx="114" cy="75" r="4" fill="#f59e0b"/>
  <circle cx="139" cy="85" r="4" fill="#f59e0b"/>

  <!-- Circular progress indicator (partial arc) -->
  <path d="M 100 40 A 55 55 0 0 1 145 60"
        stroke="#ffffff" stroke-width="6" fill="none"
        stroke-linecap="round" opacity="0.4"/>

  <!-- Small decorative dots for data visualization theme -->
  <circle cx="165" cy="100" r="3" fill="#ffffff" opacity="0.3"/>
  <circle cx="170" cy="110" r="2.5" fill="#ffffff" opacity="0.3"/>
  <circle cx="170" cy="90" r="2.5" fill="#ffffff" opacity="0.3"/>
  <circle cx="35" cy="100" r="3" fill="#ffffff" opacity="0.3"/>
  <circle cx="30" cy="90" r="2.5" fill="#ffffff" opacity="0.3"/>
  <circle cx="30" cy="110" r="2.5" fill="#ffffff" opacity="0.3"/>
</svg>